<?xml version="1.0" encoding="UTF-8" standalone="no"?>
<!-- Created with Inkscape (http://www.inkscape.org/) -->

<svg
   version="1.1"
   id="svg2"
   width="1366"
   height="768"
   viewBox="0 0 1366 768"
   xmlns="http://www.w3.org/2000/svg"
   xmlns:svg="http://www.w3.org/2000/svg">
  <defs
     id="defs6">
    <clipPath
       clipPathUnits="userSpaceOnUse"
       id="clipPath20">
      <path
         d="m 0,7.92 h 1024.5 v 576 H 0 Z"
         id="path18" />
    </clipPath>
    <clipPath
       clipPathUnits="userSpaceOnUse"
       id="clipPath30">
      <path
         d="M 0,0 H 4268.75 V 2400 H 0 Z"
         clip-rule="evenodd"
         id="path28" />
    </clipPath>
    <clipPath
       clipPathUnits="userSpaceOnUse"
       id="clipPath42">
      <path
         d="M 0,0 H 4268.75 V 2400 H 0 Z"
         clip-rule="evenodd"
         id="path40" />
    </clipPath>
    <clipPath
       clipPathUnits="userSpaceOnUse"
       id="clipPath54">
      <path
         d="m 934.375,0 h 2400 v 2400 h -2400 z"
         clip-rule="evenodd"
         id="path52" />
    </clipPath>
  </defs>
  <g
     id="g8"
     transform="matrix(1.3333333,0,0,-1.3333333,0,768)">
    <g
       id="g10">
      <g
         id="g12">
        <g
           id="g14"
           transform="translate(0,-7.92)">
          <g
             id="g16"
             clip-path="url(#clipPath20)">
            <g
               id="g22"
               transform="matrix(0.23999999,0,0,-0.23999999,0,583.91998)">
              <g
                 id="g24">
                <g
                   id="g26"
                   clip-path="url(#clipPath30)">
                  <g
                     id="g32"
                     transform="scale(3.125)">
                    <path
                       d="M 0,0 H 1366 V 768 H 0 Z"
                       style="fill:#ffffff;fill-opacity:1;fill-rule:nonzero;stroke:none"
                       id="path34" />
                  </g>
                </g>
              </g>
              <g
                 id="g36">
                <g
                   id="g38"
                   clip-path="url(#clipPath42)">
                  <g
                     id="g44"
                     transform="scale(3.125)">
                    <path
                       d="M 0,0 H 1366 V 768 H 0 Z"
                       style="fill:#000000;fill-opacity:1;fill-rule:nonzero;stroke:none"
                       id="path46" />
                  </g>
                </g>
              </g>
              <g
                 id="g48">
                <g
                   id="g50"
                   clip-path="url(#clipPath54)">
                  <g
                     id="g56"
                     transform="matrix(1.25,0,0,1.25,934.375,0)">
                    <path
                       d="M 1920,0 V 1920 H 0 V 0 Z M 936.52002,435.89001 C 920.56,438.58002 902.88,450.96002 890.54004,461.16 L 395.58005,974.94995 c -37.62,45.90995 -44.03,97.28005 -14.65,149.73995 73.12,130.5601 285.98999,293.6 432.13001,325.37 260.92004,56.72 447.08994,-41.3399 626.55004,-218.5799 72.0501,-71.16 164,-158.45 81.0601,-260.29006 l -491.21,-510.04001 c -25.61,-24.1 -58.39001,-31.1 -92.94,-25.26999 l -1.8e-4,0.0101 z"
                       style="fill:#000000;fill-opacity:1;fill-rule:nonzero;stroke:none"
                       id="path58" />
                    <path
                       d="m 936.52002,435.89001 c 34.54999,-5.82 67.33998,1.17002 92.93998,25.26999 l 491.2099,510.04001 c 82.94,101.83999 -9.01,189.13009 -81.06,260.28999 -179.46,177.24 -365.63,275.3 -626.55002,218.58 -146.14002,-31.7701 -359.01001,-194.81 -432.13001,-325.37 -29.38,-52.46 -22.97,-103.84 14.64999,-149.74004 l 494.96,-513.78998 c 12.34002,-10.20001 30.02002,-22.57998 45.97998,-25.26999 l 1.8e-4,-0.01 z M 955.19,521.78003 c -5.75,1.61999 -74.46002,72.72998 -85.28998,83.75 -126.17999,128.35998 -264.92999,266.13 -384.32998,399.42007 -19.20001,21.4399 -45.56,42.14 -32.09,73.4599 15.89002,36.96 93.58002,116.61 125.98999,144 142.67999,120.58 268.98999,175.5501 460.69997,149.6401 141.5401,-19.1301 305.09,-154.12 394.25,-262 17.6601,-21.37 43.2601,-42.24 27.6,-72.7 -2.85,-5.54 -31.68,-35.82 -38.85,-43.65003 -120.0899,-131.29998 -252.1999,-264.42004 -376.8299,-391.92004 -15.39,-15.75 -62.71998,-68.58997 -76.77003,-76.96997 -5.35999,-3.20001 -7.70001,-4.90003 -14.39002,-3.02002 l 0.01,-0.01 z"
                       style="fill:#ffffff;fill-opacity:1;fill-rule:nonzero;stroke:none"
                       id="path60" />
                    <path
                       d="m 955.19,521.78003 c 6.69,-1.88001 9.02002,-0.17999 14.39002,3.02002 14.04998,8.38 61.37998,61.21997 76.76998,76.96997 124.63,127.5 256.74,260.61999 376.8299,391.92004 7.1701,7.84004 36,38.11004 38.85,43.65004 15.66,30.46 -9.9399,51.3299 -27.6,72.6999 -89.16,107.88 -252.7099,242.87 -394.25,262 -191.70999,25.9101 -318.01999,-29.0699 -460.69998,-149.64 -32.40997,-27.39 -110.10001,-107.04 -125.98999,-144 -13.45999,-31.3199 12.89001,-52.02 32.09,-73.46 119.39999,-133.29999 258.14999,-271.07 384.32998,-399.41998 10.83002,-11.02002 79.53003,-82.13001 85.28998,-83.75 l -0.01,0.01 z m -30.03003,176.53998 c -23.90002,5.48999 -28.80999,39.39001 -12.10998,55.5 L 1181.04,1018.31 c 44.99,9.65 58.95,-28.54999 32.12,-62.09998 -67.7199,-84.65997 -174.24,-161.36999 -245.61996,-245.61999 -12.52002,-12 -24.88001,-16.28998 -42.37,-12.27002 h -0.0101 z M 823.94,799.53998 C 801.01001,804.69 795.47003,836.58997 810,853.13 l 161.41998,161.07 c 32.00002,20.2 69.36002,-13.12 44.84002,-48.58 -13.4,-19.38001 -139.98998,-145.96003 -159.38,-159.38001 -11.04998,-7.64001 -19.21997,-9.78003 -32.94,-6.70001 z m -101.25,101.25 c -18.83001,4.21997 -24.41998,25.06 -21.27002,42.14001 2.33002,12.63001 52.40003,63.61001 64.69001,70.33001 36.77001,20.09 69.95001,-13.52001 47.65997,-47.65996 -3.84998,-5.90003 -57.34003,-58.77997 -62.37,-61.37 -9.46002,-4.88 -18.21002,-5.78998 -28.71997,-3.44 l 0.01,-6e-5 z"
                       style="fill:#000000;fill-opacity:1;fill-rule:nonzero;stroke:none"
                       id="path62" />
                    <path
                       d="m 925.15997,698.32001 c 17.48999,-4.02002 29.84998,0.27002 42.37,12.27002 71.37993,84.26001 177.90993,160.96002 245.61993,245.61999 26.83,33.53998 12.87,71.74008 -32.12,62.09998 L 913.03992,753.82001 c -16.69001,-16.12 -11.78003,-50.01001 12.10998,-55.5 h 0.0101 z"
                       style="fill:#ffffff;fill-opacity:1;fill-rule:nonzero;stroke:none"
                       id="path64" />
                    <path
                       d="m 823.94,799.53998 c 13.71997,-3.08002 21.89002,-0.94 32.94,6.70001 19.38001,13.40997 145.98,140 159.38,159.38001 24.52,35.46 -12.84,68.78 -44.84002,48.58 L 810,853.13 c -14.53003,-16.53997 -8.98999,-48.44 13.94,-53.59002 z"
                       style="fill:#ffffff;fill-opacity:1;fill-rule:nonzero;stroke:none"
                       id="path66" />
                    <path
                       d="m 722.69,900.78998 c 10.5,-2.34998 19.26001,-1.44 28.71997,3.44 5.03003,2.59998 58.52002,55.46997 62.37,61.37 22.28998,34.14001 -10.89002,67.75002 -47.65997,47.65992 -12.29999,-6.7199 -62.35999,-57.69996 -64.69001,-70.32997 -3.15002,-17.07001 2.44001,-37.91998 21.27002,-42.14001 l -0.01,6e-5 z"
                       style="fill:#ffffff;fill-opacity:1;fill-rule:nonzero;stroke:none"
                       id="path68" />
                  </g>
                </g>
              </g>
            </g>
          </g>
        </g>
      </g>
    </g>
  </g>
</svg>
