<?xml version="1.0" encoding="UTF-8"?>
<svg id="_图层_1" data-name="图层 1" xmlns="http://www.w3.org/2000/svg" viewBox="0 0 1920 1920">
  <defs>
    <style>
      .cls-1 {
        fill: #fff;
      }
    </style>
  </defs>
  <path d="M1920,0v1920H0V0h1920ZM936.52,435.89c-15.96,2.69-33.64,15.07-45.98,25.27l-494.96,513.79c-37.62,45.91-44.03,97.28-14.65,149.74,73.12,130.56,285.99,293.6,432.13,325.37,260.92,56.72,447.09-41.34,626.55-218.58,72.05-71.16,164-158.45,81.06-260.29l-491.21-510.04c-25.61-24.1-58.39-31.1-92.94-25.27Z"/>
  <path class="cls-1" d="M936.52,435.89c34.55-5.82,67.34,1.17,92.94,25.27l491.21,510.04c82.94,101.84-9.01,189.13-81.06,260.29-179.46,177.24-365.63,275.3-626.55,218.58-146.14-31.77-359.01-194.81-432.13-325.37-29.38-52.46-22.97-103.84,14.65-149.74l494.96-513.79c12.34-10.2,30.02-22.58,45.98-25.27ZM955.19,521.78c-5.75,1.62-74.46,72.73-85.29,83.75-126.18,128.36-264.93,266.13-384.33,399.42-19.2,21.44-45.56,42.14-32.09,73.46,15.89,36.96,93.58,116.61,125.99,144,142.68,120.58,268.99,175.55,460.7,149.64,141.54-19.13,305.09-154.12,394.25-262,17.66-21.37,43.26-42.24,27.6-72.7-2.85-5.54-31.68-35.82-38.85-43.65-120.09-131.3-252.2-264.42-376.83-391.92-15.39-15.75-62.72-68.59-76.77-76.97-5.36-3.2-7.7-4.9-14.39-3.02Z"/>
  <path d="M955.19,521.78c6.69-1.88,9.02-.18,14.39,3.02,14.05,8.38,61.38,61.22,76.77,76.97,124.63,127.5,256.74,260.62,376.83,391.92,7.17,7.84,36,38.11,38.85,43.65,15.66,30.46-9.94,51.33-27.6,72.7-89.16,107.88-252.71,242.87-394.25,262-191.71,25.91-318.02-29.07-460.7-149.64-32.41-27.39-110.1-107.04-125.99-144-13.46-31.32,12.89-52.02,32.09-73.46,119.4-133.3,258.15-271.07,384.33-399.42,10.83-11.02,79.53-82.13,85.29-83.75ZM925.16,698.32c-23.9,5.49-28.81,39.39-12.11,55.5l267.99,264.49c44.99,9.65,58.95-28.55,32.12-62.1-67.72-84.66-174.24-161.37-245.62-245.62-12.52-12-24.88-16.29-42.37-12.27ZM823.94,799.54c-22.93,5.15-28.47,37.05-13.94,53.59l161.42,161.07c32,20.2,69.36-13.12,44.84-48.58-13.4-19.38-139.99-145.96-159.38-159.38-11.05-7.64-19.22-9.78-32.94-6.7ZM722.69,900.79c-18.83,4.22-24.42,25.06-21.27,42.14,2.33,12.63,52.4,63.61,64.69,70.33,36.77,20.09,69.95-13.52,47.66-47.66-3.85-5.9-57.34-58.78-62.37-61.37-9.46-4.88-18.21-5.79-28.72-3.44Z"/>
  <path class="cls-1" d="M925.16,698.32c17.49-4.02,29.85.27,42.37,12.27,71.38,84.26,177.91,160.96,245.62,245.62,26.83,33.54,12.87,71.74-32.12,62.1l-267.99-264.49c-16.69-16.12-11.78-50.01,12.11-55.5Z"/>
  <path class="cls-1" d="M823.94,799.54c13.72-3.08,21.89-.94,32.94,6.7,19.38,13.41,145.98,140,159.38,159.38,24.52,35.46-12.84,68.78-44.84,48.58l-161.42-161.07c-14.53-16.54-8.99-48.44,13.94-53.59Z"/>
  <path class="cls-1" d="M722.69,900.79c10.5-2.35,19.26-1.44,28.72,3.44,5.03,2.6,58.52,55.47,62.37,61.37,22.29,34.14-10.89,67.75-47.66,47.66-12.3-6.72-62.36-57.7-64.69-70.33-3.15-17.07,2.44-37.92,21.27-42.14Z"/>
</svg>